<svg width="162" height="28" viewBox="0 0 162 28" fill="none" xmlns="http://www.w3.org/2000/svg">
<path d="M1.43 22V7.1H7C8.01333 7.1 8.90917 7.2825 9.6875 7.6475C10.4658 8.0125 11.0758 8.54583 11.5175 9.2475C11.9592 9.94917 12.18 10.8033 12.18 11.81C12.18 12.7967 11.9567 13.64 11.51 14.34C11.0633 15.04 10.4517 15.575 9.675 15.945C8.89833 16.315 8.00667 16.5 7 16.5H4.155V22H1.43ZM4.155 14.1H7.035C7.525 14.1 7.95 14.0042 8.31 13.8125C8.67 13.6208 8.95083 13.3525 9.1525 13.0075C9.35417 12.6625 9.455 12.2617 9.455 11.805C9.455 11.3383 9.35417 10.9333 9.1525 10.59C8.95083 10.2467 8.67 9.97917 8.31 9.7875C7.95 9.59583 7.525 9.5 7.035 9.5H4.155V14.1ZM18.59 22.24C17.5267 22.24 16.5592 21.9942 15.6875 21.5025C14.8158 21.0108 14.1217 20.3367 13.605 19.48C13.0883 18.6233 12.83 17.65 12.83 16.56C12.83 15.4633 13.0875 14.49 13.6025 13.64C14.1175 12.79 14.81 12.1192 15.68 11.6275C16.55 11.1358 17.52 10.89 18.59 10.89C19.66 10.89 20.6275 11.135 21.4925 11.625C22.3575 12.115 23.0467 12.785 23.56 13.635C24.0733 14.485 24.33 15.46 24.33 16.56C24.33 17.6533 24.0708 18.6283 23.5525 19.485C23.0342 20.3417 22.3425 21.015 21.4775 21.505C20.6125 21.995 19.65 22.24 18.59 22.24ZM18.59 19.84C19.18 19.84 19.7 19.7 20.15 19.42C20.6 19.14 20.955 18.7517 21.215 18.255C21.475 17.7583 21.605 17.1933 21.605 16.56C21.605 15.9267 21.475 15.3658 21.215 14.8775C20.955 14.3892 20.6 14.0025 20.15 13.7175C19.7 13.4325 19.18 13.29 18.59 13.29C18 13.29 17.4775 13.4325 17.0225 13.7175C16.5675 14.0025 16.2092 14.3892 15.9475 14.8775C15.6858 15.3658 15.555 15.9267 15.555 16.56C15.555 17.1933 15.6858 17.7583 15.9475 18.255C16.2092 18.7517 16.5675 19.14 17.0225 19.42C17.4775 19.7 18 19.84 18.59 19.84ZM25.81 22V11.13H28.285V13.535L28.085 13.185C28.3283 12.3683 28.7217 11.8008 29.265 11.4825C29.8083 11.1642 30.4567 11.005 31.21 11.005H31.86V13.33H30.92C30.1767 13.33 29.5767 13.5575 29.12 14.0125C28.6633 14.4675 28.435 15.11 28.435 15.94V22H25.81ZM40.36 22.24C39.26 22.24 38.2375 22.0475 37.2925 21.6625C36.3475 21.2775 35.5225 20.7367 34.8175 20.04C34.1125 19.3433 33.5617 18.5275 33.165 17.5925C32.7683 16.6575 32.57 15.64 32.57 14.54C32.57 13.44 32.7658 12.4225 33.1575 11.4875C33.5492 10.5525 34.0975 9.73917 34.8025 9.0475C35.5075 8.35583 36.3325 7.81833 37.2775 7.435C38.2225 7.05167 39.25 6.86 40.36 6.86C41.47 6.86 42.4975 7.0525 43.4425 7.4375C44.3875 7.8225 45.2125 8.36083 45.9175 9.0525C46.6225 9.74417 47.1708 10.5567 47.5625 11.49C47.9542 12.4233 48.15 13.44 48.15 14.54C48.15 15.64 47.9517 16.6575 47.555 17.5925C47.1583 18.5275 46.6075 19.3433 45.9025 20.04C45.1975 20.7367 44.3725 21.2775 43.4275 21.6625C42.4825 22.0475 41.46 22.24 40.36 22.24ZM40.36 19.765C41.0867 19.765 41.7567 19.635 42.37 19.375C42.9833 19.115 43.52 18.7508 43.98 18.2825C44.44 17.8142 44.7958 17.2617 45.0475 16.625C45.2992 15.9883 45.425 15.2933 45.425 14.54C45.425 13.79 45.2992 13.0992 45.0475 12.4675C44.7958 11.8358 44.44 11.2833 43.98 10.81C43.52 10.3367 42.9833 9.9725 42.37 9.7175C41.7567 9.4625 41.0867 9.335 40.36 9.335C39.6333 9.335 38.9633 9.4625 38.35 9.7175C37.7367 9.9725 37.2 10.3367 36.74 10.81C36.28 11.2833 35.9242 11.8358 35.6725 12.4675C35.4208 13.0992 35.295 13.79 35.295 14.54C35.295 15.2933 35.4208 15.9883 35.6725 16.625C35.9242 17.2617 36.28 17.8142 36.74 18.2825C37.2 18.7508 37.7375 19.115 38.3525 19.375C38.9675 19.635 39.6367 19.765 40.36 19.765ZM43.805 23.8L39.15 16.04H42.005L46.705 23.8H43.805ZM53.74 22.24C52.8933 22.24 52.1608 22.0533 51.5425 21.68C50.9242 21.3067 50.4508 20.7858 50.1225 20.1175C49.7942 19.4492 49.63 18.6717 49.63 17.785V11.13H52.255V17.56C52.255 18.0133 52.3467 18.4117 52.53 18.755C52.7133 19.0983 52.9725 19.365 53.3075 19.555C53.6425 19.745 54.0233 19.84 54.45 19.84C54.8867 19.84 55.2708 19.7442 55.6025 19.5525C55.9342 19.3608 56.1925 19.09 56.3775 18.74C56.5625 18.39 56.655 17.98 56.655 17.51V11.13H59.28V22H56.805V19.86L57.01 20.24C56.7567 20.9033 56.3408 21.4025 55.7625 21.7375C55.1842 22.0725 54.51 22.24 53.74 22.24ZM64.52 22.24C63.76 22.24 63.0983 22.1125 62.535 21.8575C61.9717 21.6025 61.5367 21.2408 61.23 20.7725C60.9233 20.3042 60.77 19.7517 60.77 19.115C60.77 18.515 60.905 17.98 61.175 17.51C61.445 17.04 61.8608 16.645 62.4225 16.325C62.9842 16.005 63.6883 15.7783 64.535 15.645L68.09 15.065V17.055L65.03 17.59C64.5167 17.6833 64.1325 17.8475 63.8775 18.0825C63.6225 18.3175 63.495 18.6317 63.495 19.025C63.495 19.395 63.6375 19.6917 63.9225 19.915C64.2075 20.1383 64.565 20.25 64.995 20.25C65.5483 20.25 66.0333 20.1308 66.45 19.8925C66.8667 19.6542 67.1908 19.3308 67.4225 18.9225C67.6542 18.5142 67.77 18.0633 67.77 17.57V14.76C67.77 14.29 67.5892 13.9 67.2275 13.59C66.8658 13.28 66.3817 13.125 65.775 13.125C65.2117 13.125 64.7158 13.2758 64.2875 13.5775C63.8592 13.8792 63.545 14.275 63.345 14.765L61.205 13.725C61.415 13.1517 61.7492 12.6533 62.2075 12.23C62.6658 11.8067 63.21 11.4775 63.84 11.2425C64.47 11.0075 65.15 10.89 65.88 10.89C66.7667 10.89 67.5508 11.0533 68.2325 11.38C68.9142 11.7067 69.445 12.16 69.825 12.74C70.205 13.32 70.395 13.9933 70.395 14.76V22H67.92V20.145L68.485 20.11C68.1983 20.57 67.8608 20.9583 67.4725 21.275C67.0842 21.5917 66.6442 21.8317 66.1525 21.995C65.6608 22.1583 65.1167 22.24 64.52 22.24ZM72.31 22V11.13H74.785V13.27L74.58 12.89C74.8367 12.2267 75.2533 11.7275 75.83 11.3925C76.4067 11.0575 77.08 10.89 77.85 10.89C78.66 10.89 79.3733 11.0633 79.99 11.41C80.6067 11.7567 81.0892 12.2383 81.4375 12.855C81.7858 13.4717 81.96 14.1865 81.96 14.9995V22H79.335V15.62C79.335 15.1367 79.2433 14.7233 79.06 14.38C78.8767 14.0367 78.6195 13.7692 78.2886 13.5775C77.9577 13.3858 77.5768 13.29 77.1461 13.29C76.7154 13.29 76.3317 13.3858 75.995 13.5775C75.6583 13.7692 75.3975 14.0375 75.2125 14.3825C75.0275 14.7275 74.935 15.14 74.935 15.62V22H72.31ZM88.64 22.12C87.41 22.12 86.4575 21.7825 85.7825 21.1075C85.1075 20.4325 84.77 19.485 84.77 18.265V13.455H82.895V11.13H83.095C83.6283 11.13 84.0408 10.9875 84.3325 10.7025C84.6242 10.4175 84.77 10.0083 84.77 9.475V8.65H87.395V11.13H89.905V13.455H87.395V18.115C87.395 18.485 87.4583 18.7967 87.585 19.05C87.7117 19.3033 87.9125 19.495 88.1875 19.625C88.4625 19.755 88.81 19.82 89.23 19.82C89.3267 19.82 89.4383 19.8133 89.565 19.8C89.6917 19.7867 89.8183 19.7733 89.945 19.76V22C89.755 22.03 89.54 22.0575 89.3 22.0825C89.06 22.1075 88.84 22.12 88.64 22.12ZM96.65 22.24C95.5867 22.24 94.6192 21.9942 93.7475 21.5025C92.8758 21.0108 92.1817 20.3367 91.665 19.48C91.1483 18.6233 90.89 17.65 90.89 16.56C90.89 15.4633 91.1475 14.49 91.6625 13.64C92.1775 12.79 92.87 12.1192 93.74 11.6275C94.61 11.1358 95.58 10.89 96.65 10.89C97.72 10.89 98.6875 11.135 99.5525 11.625C100.418 12.115 101.107 12.785 101.62 13.635C102.133 14.485 102.39 15.46 102.39 16.56C102.39 17.6533 102.131 18.6283 101.613 19.485C101.094 20.3417 100.403 21.015 99.5375 21.505C98.6725 21.995 97.71 22.24 96.65 22.24ZM96.65 19.84C97.24 19.84 97.76 19.7 98.21 19.42C98.66 19.14 99.015 18.7517 99.275 18.255C99.535 17.7583 99.665 17.1933 99.665 16.56C99.665 15.9267 99.535 15.3658 99.275 14.8775C99.015 14.3892 98.66 14.0025 98.21 13.7175C97.76 13.4325 97.24 13.29 96.65 13.29C96.06 13.29 95.5375 13.4325 95.0825 13.7175C94.6275 14.0025 94.2692 14.3892 94.0075 14.8775C93.7458 15.3658 93.615 15.9267 93.615 16.56C93.615 17.1933 93.7458 17.7583 94.0075 18.255C94.2692 18.7517 94.6275 19.14 95.0825 19.42C95.5375 19.7 96.06 19.84 96.65 19.84ZM104.09 22V7.1H114.005V9.5H106.815V13.33H113.605V15.73H106.815V19.6H114.005V22H104.09ZM119.16 22.24C118.313 22.24 117.581 22.0533 116.962 21.68C116.344 21.3067 115.871 20.7858 115.542 20.1175C115.214 19.4492 115.05 18.6717 115.05 17.785V11.13H117.675V17.56C117.675 18.0133 117.767 18.4117 117.95 18.755C118.133 19.0983 118.392 19.365 118.727 19.555C119.062 19.745 119.443 19.84 119.87 19.84C120.307 19.84 120.691 19.7442 121.022 19.5525C121.354 19.3608 121.612 19.09 121.797 18.74C121.982 18.39 122.075 17.98 122.075 17.51V11.13H124.7V22H122.225V19.86L122.43 20.24C122.177 20.9033 121.761 21.4025 121.182 21.7375C120.604 22.0725 119.93 22.24 119.16 22.24ZM130.83 22L125.64 7.1H128.605L132.685 19.44H132.095L136.17 7.1H139.14L133.95 22H130.83ZM144.39 22.24C143.327 22.24 142.359 21.9942 141.488 21.5025C140.616 21.0108 139.922 20.3367 139.405 19.48C138.888 18.6233 138.63 17.65 138.63 16.56C138.63 15.4633 138.888 14.49 139.403 13.64C139.918 12.79 140.61 12.1192 141.48 11.6275C142.35 11.1358 143.32 10.89 144.39 10.89C145.46 10.89 146.428 11.135 147.293 11.625C148.158 12.115 148.847 12.785 149.36 13.635C149.873 14.485 150.13 15.46 150.13 16.56C150.13 17.6533 149.871 18.6283 149.353 19.485C148.834 20.3417 148.143 21.015 147.278 21.505C146.413 21.995 145.45 22.24 144.39 22.24ZM144.39 19.84C144.98 19.84 145.5 19.7 145.95 19.42C146.4 19.14 146.755 18.7517 147.015 18.255C147.275 17.7583 147.405 17.1933 147.405 16.56C147.405 15.9267 147.275 15.3658 147.015 14.8775C146.755 14.3892 146.4 14.0025 145.95 13.7175C145.5 13.4325 144.98 13.29 144.39 13.29C143.8 13.29 143.278 13.4325 142.823 13.7175C142.368 14.0025 142.009 14.3892 141.748 14.8775C141.486 15.3658 141.355 15.9267 141.355 16.56C141.355 17.1933 141.486 17.7583 141.748 18.255C142.009 18.7517 142.368 19.14 142.823 19.42C143.278 19.7 143.8 19.84 144.39 19.84ZM155.5 22.24C154.653 22.24 153.921 22.0533 153.302 21.68C152.684 21.3067 152.211 20.7858 151.882 20.1175C151.554 19.4492 151.39 18.6717 151.39 17.785V11.13H154.015V17.56C154.015 18.0133 154.107 18.4117 154.29 18.755C154.473 19.0983 154.732 19.365 155.067 19.555C155.402 19.745 155.783 19.84 156.21 19.84C156.647 19.84 157.031 19.7442 157.362 19.5525C157.694 19.3608 157.952 19.09 158.137 18.74C158.322 18.39 158.415 17.98 158.415 17.51V11.13H161.04V22H158.565V19.86L158.77 20.24C158.517 20.9033 158.101 21.4025 157.522 21.7375C156.944 22.0725 156.27 22.24 155.5 22.24Z" fill="#2563EB"/>
</svg>
